<svg width="14" height="14" viewBox="0 0 14 14" fill="none" xmlns="http://www.w3.org/2000/svg">
<path d="M11.5134 11.3434C11.4002 11.3434 11.3083 11.4352 11.3083 11.5484V13.4766C11.3083 13.539 11.2575 13.5898 11.1951 13.5898H10.0927V9.5512C10.0927 9.43794 10.0009 9.34612 9.88762 9.34612C9.77436 9.34612 9.68254 9.43794 9.68254 9.5512V13.5898H7.46264L8.10639 12.8816C8.17672 12.8042 8.20989 12.694 8.1951 12.5867C8.19482 12.5846 8.19449 12.5825 8.19414 12.5804L7.58101 8.95828L7.74619 8.70961C7.83752 8.77447 7.90788 8.83693 8.03981 8.83693C8.17401 8.83693 8.29949 8.76181 8.36124 8.63816V8.63814L9.00792 7.34204L10.4811 7.91257C10.5344 7.93543 11.3083 8.28395 11.3083 9.20423V10.5914C11.3083 10.7046 11.4001 10.7965 11.5134 10.7965C11.6266 10.7965 11.7184 10.7046 11.7184 10.5914V9.20423C11.7184 7.9917 10.6802 7.55095 10.636 7.53277C10.6348 7.53222 10.6334 7.5317 10.6321 7.53121L8.18028 6.58167V6.00663C8.56971 5.70377 8.83973 5.25481 8.90751 4.74261C9.10168 4.72894 9.28185 4.65642 9.42898 4.5299C9.62113 4.36466 9.73138 4.12418 9.73138 3.87021C9.73138 3.65944 9.65533 3.45819 9.51982 3.30137V2.54168C9.51979 1.14021 8.37961 0 6.97814 0C5.57666 0 4.43648 1.14021 4.43648 2.54168V3.32128C4.29951 3.47651 4.22503 3.66759 4.22503 3.87018C4.22503 4.12423 4.33522 4.36469 4.52742 4.52996C4.67445 4.65642 4.85451 4.72886 5.04862 4.74255C5.11696 5.26436 5.39485 5.73005 5.81745 6.03698V6.58167L3.36824 7.53118C3.36696 7.53167 3.36567 7.53219 3.36438 7.53271C3.32017 7.55089 2.28198 7.99165 2.28198 9.20418V13.4765C2.28198 13.7651 2.51678 13.9999 2.8054 13.9999H4.7593C4.87256 13.9999 4.96438 13.9081 4.96438 13.7948C4.96438 13.6816 4.87256 13.5898 4.7593 13.5898H4.31805V9.5512C4.31805 9.43794 4.22623 9.34612 4.11297 9.34612C3.99972 9.34612 3.9079 9.43794 3.9079 9.5512V13.5898H2.80542C2.743 13.5898 2.69219 13.539 2.69219 13.4766V9.20421C2.69219 8.28084 3.4713 7.93311 3.51915 7.91265L4.99117 7.34199L5.63791 8.63814C5.69979 8.76209 5.82543 8.83693 5.95936 8.83693C6.09064 8.83693 6.16031 8.77543 6.25298 8.70961L6.41816 8.95828L5.80509 12.5804C5.80473 12.5825 5.80443 12.5846 5.80413 12.5866C5.78931 12.6939 5.82248 12.8042 5.89283 12.8816L6.53659 13.5898H5.71641C5.60315 13.5898 5.51133 13.6817 5.51133 13.7949C5.51133 13.9082 5.60315 14 5.71641 14H11.1951C11.4838 14 11.7186 13.7652 11.7186 13.4766V11.5485C11.7185 11.4352 11.6267 11.3434 11.5134 11.3434ZM8.62376 7.19329L8.02086 8.40161C8.00588 8.39098 7.68637 8.16397 7.29579 7.88662C7.46526 7.67741 7.26699 7.92214 8.04049 6.96741L8.62376 7.19329ZM7.41156 8.472L7.25521 8.70734H6.7438L6.58745 8.472L6.99952 8.17934L7.41156 8.472ZM6.22758 6.64784V6.26404C6.47673 6.36448 6.74301 6.41104 7.00305 6.41104C7.27192 6.41104 7.53559 6.35373 7.77009 6.25119V6.64951L6.99952 7.60066L6.22758 6.64784ZM9.32119 3.87021C9.32117 4.00455 9.26298 4.13167 9.16153 4.21892C9.09446 4.27662 9.01344 4.3135 8.92471 4.32794V3.41255C9.16041 3.45084 9.32119 3.64634 9.32119 3.87021ZM5.03167 4.32794C4.79329 4.28925 4.63519 4.09216 4.63519 3.87018C4.63519 3.65094 4.81694 3.47249 5.03167 3.42286V4.32794ZM5.04269 3.00497C4.97737 3.01246 4.9025 3.03015 4.84669 3.04913V2.54168C4.84669 1.36637 5.80285 0.410184 6.97816 0.410184C8.15348 0.410184 9.10964 1.36637 9.10964 2.54168V3.03505C9.05003 3.01692 8.9882 3.00494 8.92474 2.99931C8.92474 2.80142 8.92646 2.83959 8.2791 2.14361C8.16004 2.0157 7.96311 1.9889 7.81324 2.08682C7.09875 2.55355 6.22717 2.78802 5.42299 2.73027C5.24659 2.71707 5.08592 2.83325 5.04269 3.00497ZM5.44185 4.48941V3.20994V3.14254C6.32711 3.19438 7.25524 2.93139 8.00503 2.4512C8.30193 2.76998 8.46271 2.93718 8.51455 3.00079C8.51455 3.16168 8.51455 4.30522 8.51455 4.48938C8.51455 5.32191 7.83572 6.00083 7.00307 6.00083C6.06808 6.00086 5.44185 5.27554 5.44185 4.48941ZM5.9782 8.40161L5.3753 7.19329L5.95753 6.96779L6.7024 7.88722C6.32361 8.1562 6.01257 8.3772 5.9782 8.40161ZM6.21349 12.6247L6.8071 9.11747H7.19185L7.78546 12.6247L6.99949 13.4894L6.21349 12.6247Z" fill="black"/>
</svg>
