<svg width="21" height="21" viewBox="0 0 21 21" fill="none" xmlns="http://www.w3.org/2000/svg">
<path d="M16.7806 2.60146C15.103 0.923879 12.8725 0 10.5001 0C8.12768 0 5.89717 0.923879 4.21963 2.60146C2.54204 4.27909 1.61816 6.50952 1.61816 8.88191C1.61816 13.6812 6.15606 17.6731 8.59399 19.8176C8.93278 20.1157 9.22535 20.373 9.45844 20.5907C9.75047 20.8635 10.1253 21 10.5001 21C10.8749 21 11.2497 20.8635 11.5417 20.5907C11.7748 20.373 12.0674 20.1157 12.4062 19.8176C14.8441 17.6731 19.382 13.6812 19.382 8.88191C19.382 6.50952 18.4581 4.27909 16.7806 2.60146ZM11.5937 18.894C11.2475 19.1986 10.9485 19.4616 10.702 19.6918C10.5887 19.7975 10.4114 19.7976 10.2981 19.6918C10.0516 19.4615 9.75264 19.1985 9.40643 18.894C7.11447 16.8779 2.84823 13.125 2.84823 8.88195C2.84823 4.66275 6.28079 1.23018 10.5 1.23018C14.7192 1.23018 18.1518 4.66275 18.1518 8.88195C18.1518 13.125 13.8856 16.8779 11.5937 18.894Z" fill="#084C65"/>
<path d="M10.5001 4.63226C8.34182 4.63226 6.58594 6.38811 6.58594 8.54639C6.58594 10.7047 8.34182 12.4605 10.5001 12.4605C12.6584 12.4605 14.4142 10.7047 14.4142 8.54639C14.4142 6.38811 12.6584 4.63226 10.5001 4.63226ZM10.5001 11.2303C9.02014 11.2303 7.81608 10.0263 7.81608 8.54635C7.81608 7.06642 9.02014 5.86237 10.5001 5.86237C11.9801 5.86237 13.1841 7.06642 13.1841 8.54635C13.1841 10.0263 11.9801 11.2303 10.5001 11.2303Z" fill="#084C65"/>
</svg>
